<?xml version="1.0" encoding="UTF-8" standalone="no"?>
<!DOCTYPE svg PUBLIC "-//W3C//DTD SVG 1.1//EN"
 "http://www.w3.org/Graphics/SVG/1.1/DTD/svg11.dtd">
<!-- Generated by graphviz version 5.0.0 (20220707.1540)
 -->
<!-- Title: StorageDiagram Pages: 1 -->
<svg width="687pt" height="183pt"
 viewBox="0.00 0.00 686.91 182.60" xmlns="http://www.w3.org/2000/svg" xmlns:xlink="http://www.w3.org/1999/xlink">
<g id="graph0" class="graph" transform="scale(1 1) rotate(0) translate(4 178.6)">
<title>StorageDiagram</title>
<polygon fill="white" stroke="transparent" points="-4,4 -4,-178.6 682.91,-178.6 682.91,4 -4,4"/>
<!-- 1 -->
<g id="node1" class="node">
<title>1</title>
<polygon fill="#f2f2f2" stroke="black" points="0,-0.5 0,-174.1 678.91,-174.1 678.91,-0.5 0,-0.5"/>
<text text-anchor="middle" x="339.45" y="-157.5" font-family="Courier New" font-size="14.00">QuestChainToken &lt;&lt;Contract&gt;&gt;</text>
<polyline fill="none" stroke="black" points="0,-149.3 678.91,-149.3 "/>
<text text-anchor="middle" x="24.8" y="-132.7" font-family="Courier New" font-size="14.00">slot</text>
<polyline fill="none" stroke="black" points="0,-124.5 49.61,-124.5 "/>
<text text-anchor="middle" x="24.8" y="-107.9" font-family="Courier New" font-size="14.00">0</text>
<polyline fill="none" stroke="black" points="0,-99.7 49.61,-99.7 "/>
<text text-anchor="middle" x="24.8" y="-83.1" font-family="Courier New" font-size="14.00">1</text>
<polyline fill="none" stroke="black" points="0,-74.9 49.61,-74.9 "/>
<text text-anchor="middle" x="24.8" y="-58.3" font-family="Courier New" font-size="14.00">2</text>
<polyline fill="none" stroke="black" points="0,-50.1 49.61,-50.1 "/>
<text text-anchor="middle" x="24.8" y="-33.5" font-family="Courier New" font-size="14.00">3</text>
<polyline fill="none" stroke="black" points="0,-25.3 49.61,-25.3 "/>
<text text-anchor="middle" x="24.8" y="-8.7" font-family="Courier New" font-size="14.00">4</text>
<polyline fill="none" stroke="black" points="49.61,-0.5 49.61,-149.3 "/>
<text text-anchor="middle" x="364.26" y="-132.7" font-family="Courier New" font-size="14.00">type: &lt;inherited contract&gt;.variable (bytes)</text>
<polyline fill="none" stroke="black" points="49.61,-124.5 678.91,-124.5 "/>
<text text-anchor="middle" x="364.05" y="-107.9" font-family="Courier New" font-size="14.00">mapping(uint256=&gt;mapping(address=&gt;uint256)): ERC1155._balances (32)</text>
<polyline fill="none" stroke="black" points="49.61,-99.7 678.91,-99.7 "/>
<text text-anchor="middle" x="364.26" y="-83.1" font-family="Courier New" font-size="14.00">mapping(address=&gt;mapping(address=&gt;bool)): ERC1155._operatorApprovals (32)</text>
<polyline fill="none" stroke="black" points="49.61,-74.9 678.91,-74.9 "/>
<text text-anchor="middle" x="364.12" y="-58.3" font-family="Courier New" font-size="14.00">string: ERC1155._uri (32)</text>
<polyline fill="none" stroke="black" points="49.61,-50.1 678.91,-50.1 "/>
<text text-anchor="middle" x="363.83" y="-33.5" font-family="Courier New" font-size="14.00">mapping(uint256=&gt;string): _tokenURIs (32)</text>
<polyline fill="none" stroke="black" points="49.61,-25.3 678.91,-25.3 "/>
<text text-anchor="middle" x="363.94" y="-8.7" font-family="Courier New" font-size="14.00">mapping(uint256=&gt;address): _tokenOwners (32)</text>
</g>
</g>
</svg>
