<?xml version="1.0" encoding="UTF-8" standalone="no"?>
<!DOCTYPE svg PUBLIC "-//W3C//DTD SVG 1.1//EN"
 "http://www.w3.org/Graphics/SVG/1.1/DTD/svg11.dtd">
<!-- Generated by graphviz version 5.0.0 (20220707.1540)
 -->
<!-- Title: StorageDiagram Pages: 1 -->
<svg width="510pt" height="356pt"
 viewBox="0.00 0.00 509.67 356.20" xmlns="http://www.w3.org/2000/svg" xmlns:xlink="http://www.w3.org/1999/xlink">
<g id="graph0" class="graph" transform="scale(1 1) rotate(0) translate(4 352.2)">
<title>StorageDiagram</title>
<polygon fill="white" stroke="transparent" points="-4,4 -4,-352.2 505.67,-352.2 505.67,4 -4,4"/>
<!-- 1 -->
<g id="node1" class="node">
<title>1</title>
<polygon fill="#f2f2f2" stroke="black" points="0,-0.5 0,-347.7 501.67,-347.7 501.67,-0.5 0,-0.5"/>
<text text-anchor="middle" x="250.84" y="-331.1" font-family="Courier New" font-size="14.00">QuestChainFactory &lt;&lt;Contract&gt;&gt;</text>
<polyline fill="none" stroke="black" points="0,-322.9 501.67,-322.9 "/>
<text text-anchor="middle" x="24.8" y="-306.3" font-family="Courier New" font-size="14.00">slot</text>
<polyline fill="none" stroke="black" points="0,-298.1 49.61,-298.1 "/>
<text text-anchor="middle" x="24.8" y="-281.5" font-family="Courier New" font-size="14.00">0</text>
<polyline fill="none" stroke="black" points="0,-273.3 49.61,-273.3 "/>
<text text-anchor="middle" x="24.8" y="-256.7" font-family="Courier New" font-size="14.00">1</text>
<polyline fill="none" stroke="black" points="0,-248.5 49.61,-248.5 "/>
<text text-anchor="middle" x="24.8" y="-231.9" font-family="Courier New" font-size="14.00">2</text>
<polyline fill="none" stroke="black" points="0,-223.7 49.61,-223.7 "/>
<text text-anchor="middle" x="24.8" y="-207.1" font-family="Courier New" font-size="14.00">3</text>
<polyline fill="none" stroke="black" points="0,-198.9 49.61,-198.9 "/>
<text text-anchor="middle" x="24.8" y="-182.3" font-family="Courier New" font-size="14.00">4</text>
<polyline fill="none" stroke="black" points="0,-174.1 49.61,-174.1 "/>
<text text-anchor="middle" x="24.8" y="-157.5" font-family="Courier New" font-size="14.00">5</text>
<polyline fill="none" stroke="black" points="0,-149.3 49.61,-149.3 "/>
<text text-anchor="middle" x="24.8" y="-132.7" font-family="Courier New" font-size="14.00">6</text>
<polyline fill="none" stroke="black" points="0,-124.5 49.61,-124.5 "/>
<text text-anchor="middle" x="24.8" y="-107.9" font-family="Courier New" font-size="14.00">7</text>
<polyline fill="none" stroke="black" points="0,-99.7 49.61,-99.7 "/>
<text text-anchor="middle" x="24.8" y="-83.1" font-family="Courier New" font-size="14.00">8</text>
<polyline fill="none" stroke="black" points="0,-74.9 49.61,-74.9 "/>
<text text-anchor="middle" x="24.8" y="-58.3" font-family="Courier New" font-size="14.00">9</text>
<polyline fill="none" stroke="black" points="0,-50.1 49.61,-50.1 "/>
<text text-anchor="middle" x="24.8" y="-33.5" font-family="Courier New" font-size="14.00">10</text>
<polyline fill="none" stroke="black" points="0,-25.3 49.61,-25.3 "/>
<text text-anchor="middle" x="24.8" y="-8.7" font-family="Courier New" font-size="14.00">11</text>
<polyline fill="none" stroke="black" points="49.61,-0.5 49.61,-322.9 "/>
<text text-anchor="middle" x="275.64" y="-306.3" font-family="Courier New" font-size="14.00">type: &lt;inherited contract&gt;.variable (bytes)</text>
<polyline fill="none" stroke="black" points="49.61,-298.1 501.67,-298.1 "/>
<text text-anchor="middle" x="275.53" y="-281.5" font-family="Courier New" font-size="14.00">uint256: ReentrancyGuard._status (32)</text>
<polyline fill="none" stroke="black" points="49.61,-273.3 501.67,-273.3 "/>
<text text-anchor="middle" x="275.43" y="-256.7" font-family="Courier New" font-size="14.00">uint256: questChainCount (32)</text>
<polyline fill="none" stroke="black" points="49.61,-248.5 501.67,-248.5 "/>
<text text-anchor="middle" x="156.32" y="-231.9" font-family="Courier New" font-size="14.00">unallocated (12)</text>
<polyline fill="none" stroke="black" points="263.03,-223.7 263.03,-248.5 "/>
<text text-anchor="middle" x="382.34" y="-231.9" font-family="Courier New" font-size="14.00">address: admin (20)</text>
<polyline fill="none" stroke="black" points="49.61,-223.7 501.67,-223.7 "/>
<text text-anchor="middle" x="139.32" y="-207.1" font-family="Courier New" font-size="14.00">unallocated (12)</text>
<polyline fill="none" stroke="black" points="229.03,-198.9 229.03,-223.7 "/>
<text text-anchor="middle" x="364.95" y="-207.1" font-family="Courier New" font-size="14.00">address: proposedAdmin (20)</text>
<polyline fill="none" stroke="black" points="49.61,-198.9 501.67,-198.9 "/>
<text text-anchor="middle" x="275.33" y="-182.3" font-family="Courier New" font-size="14.00">uint256: adminProposalTimestamp (32)</text>
<polyline fill="none" stroke="black" points="49.61,-174.1 501.67,-174.1 "/>
<text text-anchor="middle" x="132.82" y="-157.5" font-family="Courier New" font-size="14.00">unallocated (12)</text>
<polyline fill="none" stroke="black" points="216.03,-149.3 216.03,-174.1 "/>
<text text-anchor="middle" x="358.55" y="-157.5" font-family="Courier New" font-size="14.00">IERC20Token: paymentToken (20)</text>
<polyline fill="none" stroke="black" points="49.61,-149.3 501.67,-149.3 "/>
<text text-anchor="middle" x="124.82" y="-132.7" font-family="Courier New" font-size="14.00">unallocated (12)</text>
<polyline fill="none" stroke="black" points="200.03,-124.5 200.03,-149.3 "/>
<text text-anchor="middle" x="350.85" y="-132.7" font-family="Courier New" font-size="14.00">address: proposedPaymentToken (20)</text>
<polyline fill="none" stroke="black" points="49.61,-124.5 501.67,-124.5 "/>
<text text-anchor="middle" x="275.23" y="-107.9" font-family="Courier New" font-size="14.00">uint256: paymentTokenProposalTimestamp (32)</text>
<polyline fill="none" stroke="black" points="49.61,-99.7 501.67,-99.7 "/>
<text text-anchor="middle" x="275.42" y="-83.1" font-family="Courier New" font-size="14.00">uint256: upgradeFee (32)</text>
<polyline fill="none" stroke="black" points="49.61,-74.9 501.67,-74.9 "/>
<text text-anchor="middle" x="275.53" y="-58.3" font-family="Courier New" font-size="14.00">uint256: proposedUpgradeFee (32)</text>
<polyline fill="none" stroke="black" points="49.61,-50.1 501.67,-50.1 "/>
<text text-anchor="middle" x="275.33" y="-33.5" font-family="Courier New" font-size="14.00">uint256: upgradeFeeProposalTimestamp (32)</text>
<polyline fill="none" stroke="black" points="49.61,-25.3 501.67,-25.3 "/>
<text text-anchor="middle" x="275.44" y="-8.7" font-family="Courier New" font-size="14.00">mapping(uint256=&gt;address): _questChains (32)</text>
</g>
</g>
</svg>
