<?xml version="1.0" encoding="UTF-8" standalone="no"?>
<!DOCTYPE svg PUBLIC "-//W3C//DTD SVG 1.1//EN"
 "http://www.w3.org/Graphics/SVG/1.1/DTD/svg11.dtd">
<!-- Generated by graphviz version 5.0.0 (20220707.1540)
 -->
<!-- Title: StorageDiagram Pages: 1 -->
<svg width="1500pt" height="282pt"
 viewBox="0.00 0.00 1500.22 281.80" xmlns="http://www.w3.org/2000/svg" xmlns:xlink="http://www.w3.org/1999/xlink">
<g id="graph0" class="graph" transform="scale(1 1) rotate(0) translate(4 277.8)">
<title>StorageDiagram</title>
<polygon fill="white" stroke="transparent" points="-4,4 -4,-277.8 1496.22,-277.8 1496.22,4 -4,4"/>
<!-- 2 -->
<g id="node1" class="node">
<title>2</title>
<polygon fill="#f2f2f2" stroke="black" points="0,-0.5 0,-273.3 1088.16,-273.3 1088.16,-0.5 0,-0.5"/>
<text text-anchor="middle" x="544.08" y="-256.7" font-family="Courier New" font-size="14.00">QuestChain &lt;&lt;Contract&gt;&gt;</text>
<polyline fill="none" stroke="black" points="0,-248.5 1088.16,-248.5 "/>
<text text-anchor="middle" x="24.8" y="-231.9" font-family="Courier New" font-size="14.00">slot</text>
<polyline fill="none" stroke="black" points="0,-223.7 49.61,-223.7 "/>
<text text-anchor="middle" x="24.8" y="-207.1" font-family="Courier New" font-size="14.00">0</text>
<polyline fill="none" stroke="black" points="0,-198.9 49.61,-198.9 "/>
<text text-anchor="middle" x="24.8" y="-182.3" font-family="Courier New" font-size="14.00">1</text>
<polyline fill="none" stroke="black" points="0,-174.1 49.61,-174.1 "/>
<text text-anchor="middle" x="24.8" y="-157.5" font-family="Courier New" font-size="14.00">2</text>
<polyline fill="none" stroke="black" points="0,-149.3 49.61,-149.3 "/>
<text text-anchor="middle" x="24.8" y="-132.7" font-family="Courier New" font-size="14.00">3</text>
<polyline fill="none" stroke="black" points="0,-124.5 49.61,-124.5 "/>
<text text-anchor="middle" x="24.8" y="-107.9" font-family="Courier New" font-size="14.00">4</text>
<polyline fill="none" stroke="black" points="0,-99.7 49.61,-99.7 "/>
<text text-anchor="middle" x="24.8" y="-83.1" font-family="Courier New" font-size="14.00">5</text>
<polyline fill="none" stroke="black" points="0,-74.9 49.61,-74.9 "/>
<text text-anchor="middle" x="24.8" y="-58.3" font-family="Courier New" font-size="14.00">6</text>
<polyline fill="none" stroke="black" points="0,-50.1 49.61,-50.1 "/>
<text text-anchor="middle" x="24.8" y="-33.5" font-family="Courier New" font-size="14.00">7</text>
<polyline fill="none" stroke="black" points="0,-25.3 49.61,-25.3 "/>
<text text-anchor="middle" x="24.8" y="-8.7" font-family="Courier New" font-size="14.00">8</text>
<polyline fill="none" stroke="black" points="49.61,-0.5 49.61,-248.5 "/>
<text text-anchor="middle" x="568.88" y="-231.9" font-family="Courier New" font-size="14.00">type: &lt;inherited contract&gt;.variable (bytes)</text>
<polyline fill="none" stroke="black" points="49.61,-223.7 1088.16,-223.7 "/>
<text text-anchor="middle" x="568.53" y="-207.1" font-family="Courier New" font-size="14.00">uint256: ReentrancyGuard._status (32)</text>
<polyline fill="none" stroke="black" points="49.61,-198.9 1088.16,-198.9 "/>
<text text-anchor="middle" x="124.82" y="-182.3" font-family="Courier New" font-size="14.00">unallocated (29)</text>
<polyline fill="none" stroke="black" points="200.03,-174.1 200.03,-198.9 "/>
<text text-anchor="middle" x="317.25" y="-182.3" font-family="Courier New" font-size="14.00">bool: Pausable._paused (1)</text>
<polyline fill="none" stroke="black" points="434.46,-174.1 434.46,-198.9 "/>
<text text-anchor="middle" x="597.89" y="-182.3" font-family="Courier New" font-size="14.00">bool: Initializable._initializing (1)</text>
<polyline fill="none" stroke="black" points="761.31,-174.1 761.31,-198.9 "/>
<text text-anchor="middle" x="924.74" y="-182.3" font-family="Courier New" font-size="14.00">uint8: Initializable._initialized (1)</text>
<polyline fill="none" stroke="black" points="49.61,-174.1 1088.16,-174.1 "/>
<text text-anchor="middle" x="568.74" y="-157.5" font-family="Courier New" font-size="14.00">mapping(bytes32=&gt;RoleData): AccessControl._roles (32)</text>
<polyline fill="none" stroke="black" points="49.61,-149.3 1088.16,-149.3 "/>
<text text-anchor="middle" x="184.82" y="-132.7" font-family="Courier New" font-size="14.00">unallocated (11)</text>
<polyline fill="none" stroke="black" points="320.03,-124.5 320.03,-149.3 "/>
<text text-anchor="middle" x="564.46" y="-132.7" font-family="Courier New" font-size="14.00">IQuestChainFactory: questChainFactory (20)</text>
<polyline fill="none" stroke="black" points="808.88,-124.5 808.88,-149.3 "/>
<text text-anchor="middle" x="948.3" y="-132.7" font-family="Courier New" font-size="14.00">bool: premium (1)</text>
<polyline fill="none" stroke="black" points="49.61,-124.5 1088.16,-124.5 "/>
<text text-anchor="middle" x="262.82" y="-107.9" font-family="Courier New" font-size="14.00">unallocated (12)</text>
<polyline fill="none" stroke="black" points="476.03,-99.7 476.03,-124.5 "/>
<text text-anchor="middle" x="781.65" y="-107.9" font-family="Courier New" font-size="14.00">IQuestChainToken: questChainToken (20)</text>
<polyline fill="none" stroke="black" points="49.61,-99.7 1088.16,-99.7 "/>
<text text-anchor="middle" x="568.82" y="-83.1" font-family="Courier New" font-size="14.00">uint256: questChainId (32)</text>
<polyline fill="none" stroke="black" points="49.61,-74.9 1088.16,-74.9 "/>
<text text-anchor="middle" x="568.42" y="-58.3" font-family="Courier New" font-size="14.00">uint256: questCount (32)</text>
<polyline fill="none" stroke="black" points="49.61,-50.1 1088.16,-50.1 "/>
<text text-anchor="middle" x="568.63" y="-33.5" font-family="Courier New" font-size="14.00">mapping(uint256=&gt;bool): questPaused (32)</text>
<polyline fill="none" stroke="black" points="49.61,-25.3 1088.16,-25.3 "/>
<text text-anchor="middle" x="568.85" y="-8.7" font-family="Courier New" font-size="14.00">mapping(address=&gt;mapping(uint256=&gt;Status)): _questStatus (32)</text>
</g>
<!-- 1 -->
<g id="node2" class="node">
<title>1</title>
<polygon fill="#f2f2f2" stroke="black" points="1124.16,-112.3 1124.16,-211.5 1492.22,-211.5 1492.22,-112.3 1124.16,-112.3"/>
<text text-anchor="middle" x="1308.19" y="-194.9" font-family="Courier New" font-size="14.00">RoleData &lt;&lt;Struct&gt;&gt;</text>
<polyline fill="none" stroke="black" points="1124.16,-186.7 1492.22,-186.7 "/>
<text text-anchor="middle" x="1148.97" y="-170.1" font-family="Courier New" font-size="14.00">slot</text>
<polyline fill="none" stroke="black" points="1124.16,-161.9 1173.77,-161.9 "/>
<text text-anchor="middle" x="1148.97" y="-145.3" font-family="Courier New" font-size="14.00">0</text>
<polyline fill="none" stroke="black" points="1124.16,-137.1 1173.77,-137.1 "/>
<text text-anchor="middle" x="1148.97" y="-120.5" font-family="Courier New" font-size="14.00">1</text>
<polyline fill="none" stroke="black" points="1173.77,-112.3 1173.77,-186.7 "/>
<text text-anchor="middle" x="1332.99" y="-170.1" font-family="Courier New" font-size="14.00">type: variable (bytes)</text>
<polyline fill="none" stroke="black" points="1173.77,-161.9 1492.22,-161.9 "/>
<text text-anchor="middle" x="1332.99" y="-145.3" font-family="Courier New" font-size="14.00">mapping(address=&gt;bool): members (32)</text>
<polyline fill="none" stroke="black" points="1173.77,-137.1 1492.22,-137.1 "/>
<text text-anchor="middle" x="1332.89" y="-120.5" font-family="Courier New" font-size="14.00">bytes32: adminRole (32)</text>
</g>
<!-- 2&#45;&gt;1 -->
<g id="edge1" class="edge">
<title>2:7&#45;&gt;1</title>
<path fill="none" stroke="black" d="M1088.16,-161.9C1096.57,-161.9 1105.15,-161.9 1113.83,-161.9"/>
<polygon fill="black" stroke="black" points="1114.04,-165.4 1124.04,-161.9 1114.04,-158.4 1114.04,-165.4"/>
</g>
</g>
</svg>
