<?xml version="1.0" encoding="UTF-8" standalone="no"?>
<!DOCTYPE svg PUBLIC "-//W3C//DTD SVG 1.1//EN"
 "http://www.w3.org/Graphics/SVG/1.1/DTD/svg11.dtd">
<!-- Generated by graphviz version 5.0.0 (20220707.1540)
 -->
<!-- Title: StorageDiagram Pages: 1 -->
<svg width="468pt" height="282pt"
 viewBox="0.00 0.00 467.67 281.80" xmlns="http://www.w3.org/2000/svg" xmlns:xlink="http://www.w3.org/1999/xlink">
<g id="graph0" class="graph" transform="scale(1 1) rotate(0) translate(4 277.8)">
<title>StorageDiagram</title>
<polygon fill="white" stroke="transparent" points="-4,4 -4,-277.8 463.67,-277.8 463.67,4 -4,4"/>
<!-- 1 -->
<g id="node1" class="node">
<title>1</title>
<polygon fill="#f2f2f2" stroke="black" points="0,-0.5 0,-273.3 459.67,-273.3 459.67,-0.5 0,-0.5"/>
<text text-anchor="middle" x="229.83" y="-256.7" font-family="Courier New" font-size="14.00">QuestChainFactory &lt;&lt;Contract&gt;&gt;</text>
<polyline fill="none" stroke="black" points="0,-248.5 459.67,-248.5 "/>
<text text-anchor="middle" x="24.8" y="-231.9" font-family="Courier New" font-size="14.00">slot</text>
<polyline fill="none" stroke="black" points="0,-223.7 49.61,-223.7 "/>
<text text-anchor="middle" x="24.8" y="-207.1" font-family="Courier New" font-size="14.00">0</text>
<polyline fill="none" stroke="black" points="0,-198.9 49.61,-198.9 "/>
<text text-anchor="middle" x="24.8" y="-182.3" font-family="Courier New" font-size="14.00">1</text>
<polyline fill="none" stroke="black" points="0,-174.1 49.61,-174.1 "/>
<text text-anchor="middle" x="24.8" y="-157.5" font-family="Courier New" font-size="14.00">2</text>
<polyline fill="none" stroke="black" points="0,-149.3 49.61,-149.3 "/>
<text text-anchor="middle" x="24.8" y="-132.7" font-family="Courier New" font-size="14.00">3</text>
<polyline fill="none" stroke="black" points="0,-124.5 49.61,-124.5 "/>
<text text-anchor="middle" x="24.8" y="-107.9" font-family="Courier New" font-size="14.00">4</text>
<polyline fill="none" stroke="black" points="0,-99.7 49.61,-99.7 "/>
<text text-anchor="middle" x="24.8" y="-83.1" font-family="Courier New" font-size="14.00">5</text>
<polyline fill="none" stroke="black" points="0,-74.9 49.61,-74.9 "/>
<text text-anchor="middle" x="24.8" y="-58.3" font-family="Courier New" font-size="14.00">6</text>
<polyline fill="none" stroke="black" points="0,-50.1 49.61,-50.1 "/>
<text text-anchor="middle" x="24.8" y="-33.5" font-family="Courier New" font-size="14.00">7</text>
<polyline fill="none" stroke="black" points="0,-25.3 49.61,-25.3 "/>
<text text-anchor="middle" x="24.8" y="-8.7" font-family="Courier New" font-size="14.00">8</text>
<polyline fill="none" stroke="black" points="49.61,-0.5 49.61,-248.5 "/>
<text text-anchor="middle" x="254.64" y="-231.9" font-family="Courier New" font-size="14.00">type: &lt;inherited contract&gt;.variable (bytes)</text>
<polyline fill="none" stroke="black" points="49.61,-223.7 459.67,-223.7 "/>
<text text-anchor="middle" x="254.53" y="-207.1" font-family="Courier New" font-size="14.00">uint256: ReentrancyGuard._status (32)</text>
<polyline fill="none" stroke="black" points="49.61,-198.9 459.67,-198.9 "/>
<text text-anchor="middle" x="254.43" y="-182.3" font-family="Courier New" font-size="14.00">uint256: questChainCount (32)</text>
<polyline fill="none" stroke="black" points="49.61,-174.1 459.67,-174.1 "/>
<text text-anchor="middle" x="254.42" y="-157.5" font-family="Courier New" font-size="14.00">uint256: upgradeFee (32)</text>
<polyline fill="none" stroke="black" points="49.61,-149.3 459.67,-149.3 "/>
<text text-anchor="middle" x="145.82" y="-132.7" font-family="Courier New" font-size="14.00">unallocated (12)</text>
<polyline fill="none" stroke="black" points="242.03,-124.5 242.03,-149.3 "/>
<text text-anchor="middle" x="350.84" y="-132.7" font-family="Courier New" font-size="14.00">address: admin (20)</text>
<polyline fill="none" stroke="black" points="49.61,-124.5 459.67,-124.5 "/>
<text text-anchor="middle" x="126.82" y="-107.9" font-family="Courier New" font-size="14.00">unallocated (12)</text>
<polyline fill="none" stroke="black" points="204.03,-99.7 204.03,-124.5 "/>
<text text-anchor="middle" x="331.65" y="-107.9" font-family="Courier New" font-size="14.00">address: questChainImpl (20)</text>
<polyline fill="none" stroke="black" points="49.61,-99.7 459.67,-99.7 "/>
<text text-anchor="middle" x="124.82" y="-83.1" font-family="Courier New" font-size="14.00">unallocated (12)</text>
<polyline fill="none" stroke="black" points="200.03,-74.9 200.03,-99.7 "/>
<text text-anchor="middle" x="329.85" y="-83.1" font-family="Courier New" font-size="14.00">address: questChainToken (20)</text>
<polyline fill="none" stroke="black" points="49.61,-74.9 459.67,-74.9 "/>
<text text-anchor="middle" x="139.32" y="-58.3" font-family="Courier New" font-size="14.00">unallocated (12)</text>
<polyline fill="none" stroke="black" points="229.03,-50.1 229.03,-74.9 "/>
<text text-anchor="middle" x="343.94" y="-58.3" font-family="Courier New" font-size="14.00">address: treasury (20)</text>
<polyline fill="none" stroke="black" points="49.61,-50.1 459.67,-50.1 "/>
<text text-anchor="middle" x="130.82" y="-33.5" font-family="Courier New" font-size="14.00">unallocated (12)</text>
<polyline fill="none" stroke="black" points="212.03,-25.3 212.03,-50.1 "/>
<text text-anchor="middle" x="335.75" y="-33.5" font-family="Courier New" font-size="14.00">address: paymentToken (20)</text>
<polyline fill="none" stroke="black" points="49.61,-25.3 459.67,-25.3 "/>
<text text-anchor="middle" x="254.44" y="-8.7" font-family="Courier New" font-size="14.00">mapping(uint256=&gt;address): _questChains (32)</text>
</g>
</g>
</svg>
